<svg xmlns="http://www.w3.org/2000/svg" width="480pt" height="290pt" viewBox="0 0 480 290" version="1.1" xmlns:xlink="http://www.w3.org/1999/xlink">
  <g id="surface2" transform="matrix(1,0,0,1,-0.5,-1.5)" data-tpl_matrix="1,0,0,1,-0.5,-0.5">
    <path style="stroke:none;fill-rule:evenodd;fill:rgb(76.078431%,15.686275%,17.647059%);fill-opacity:1" d="M 240.500000 46.148438 L 211.601562 73.000000 L 220.851562 81.550781 L 240.500000 63.300781 L 318.750000 135.949219 L 337.199219 135.949219 L 240.500000 46.148438 "/>
    <path style="stroke:none;fill-rule:evenodd;fill:rgb(5.490196%,21.176471%,76.862745%);fill-opacity:1" d="M 182.699219 46.148438 L 86.000000 135.949219 L 104.449219 135.949219 L 182.699219 63.300781 L 260.949219 135.949219 L 279.398438 135.949219 L 182.699219 46.148438 "/>
    <path style="stroke:none;fill-rule:evenodd;fill:rgb(76.078431%,15.686275%,17.647059%);fill-opacity:1" d="M 202.800781 97.449219 L 183.898438 97.449219 L 183.898438 115.500000 L 202.800781 115.500000 L 202.800781 97.449219 "/>
    <path style="stroke:none;fill-rule:evenodd;fill:rgb(17.254902%,50.196078%,33.333333%);fill-opacity:1" d="M 183.898438 136.000000 L 202.800781 136.000000 L 202.800781 117.949219 L 183.898438 117.949219 L 183.898438 136.000000 "/>
    <path style="stroke:none;fill-rule:evenodd;fill:rgb(5.490196%,21.176471%,76.862745%);fill-opacity:1" d="M 181.500000 97.449219 L 162.601562 97.449219 L 162.601562 115.500000 L 181.500000 115.500000 L 181.500000 97.449219 "/>
    <path style="stroke:none;fill-rule:evenodd;fill:rgb(45.490196%,32.156863%,16.862745%);fill-opacity:1" d="M 162.601562 136.000000 L 181.500000 136.000000 L 181.500000 117.949219 L 162.601562 117.949219 L 162.601562 136.000000 "/>
    <path style="stroke:none;fill-rule:evenodd;fill:rgb(23.529412%,40.000000%,33.333333%);fill-opacity:1" d="M 298.250000 46.148438 L 269.351562 73.000000 L 278.601562 81.550781 L 298.250000 63.300781 L 376.500000 135.949219 L 394.949219 135.949219 L 298.250000 46.148438 "/>
  </g>
  <g id="surface4">
    <text style="fill:rgb(14,54,196)" font-family="Audiowide" font-size="40" transform="matrix(1,0,0,1,47.5,191.3)" xml:space="preserve"><![CDATA[JLA Builders, LLC]]></text>
    <text style="fill:rgb(194,40,45)" font-family="Audiowide" font-size="21" transform="matrix(1,0,0,1,47.900000000000006,241.4)" xml:space="preserve"><![CDATA[Custom Home Builder/Remodeling]]></text>
  </g>
</svg>